<svg xmlns="http://www.w3.org/2000/svg" width="194" height="55" viewBox="0 0 194 55">
  <g fill="none" fill-rule="evenodd">
    <path fill="#212121" fill-rule="nonzero" d="M116.7669,8.9979798 L111.333384,29.1813731 L105.644603,29.1813731 L101.305084,14.4992296 L96.8561651,29.1813731 L91.1673838,29.1813731 L85.7703349,8.9979798 L90.912118,8.9979798 L94.1941072,24.5909262 L98.6794925,8.9979798 L104.113008,8.9979798 L108.63486,24.5909262 L111.953315,8.9979798 L116.7669,8.9979798 Z M118.736093,3.2052731 C118.736093,2.3794743 119.027823,1.70548683 119.61129,1.18329053 C120.194758,0.66109423 120.960548,0.4 121.908683,0.4 C122.856818,0.4 123.622608,0.66109423 124.206075,1.18329053 C124.789543,1.70548683 125.081272,2.3794743 125.081272,3.2052731 C125.081272,4.0067837 124.789543,4.6686272 124.206075,5.1908235 C123.622608,5.7130198 122.856818,5.974114 121.908683,5.974114 C120.960548,5.974114 120.194758,5.7130198 119.61129,5.1908235 C119.027823,4.6686272 118.736093,4.0067837 118.736093,3.2052731 Z M124.461341,8.9979798 L124.461341,29.1813731 L119.319558,29.1813731 L119.319558,8.9979798 L124.461341,8.9979798 Z M141.163019,8.7065229 C143.49689,8.7065229 145.356665,9.4715897 146.742401,11.0017463 C148.128137,12.5319029 148.820994,14.6813763 148.820994,17.4502311 L148.820994,29.1813731 L143.715678,29.1813731 L143.715678,18.033145 C143.715678,16.4301238 143.302394,15.1853722 142.475815,14.2988529 C141.649236,13.4123336 140.518784,12.9690806 139.084426,12.9690806 C137.625757,12.9690806 136.458839,13.4426934 135.583638,14.3899332 C134.708436,15.337173 134.270842,16.6972918 134.270842,18.4703304 L134.270842,29.1813731 L129.129059,29.1813731 L129.129059,8.9979798 L134.270842,8.9979798 L134.270842,13.0419449 C134.805687,11.6818057 135.686954,10.6192129 136.914667,9.8541346 C138.14238,9.0890563 139.558483,8.7065229 141.163019,8.7065229 Z M161.256087,8.742955 C162.957867,8.742955 164.416515,9.1437043 165.632072,9.9452149 C166.84763,10.7467255 167.710663,11.8275341 168.221197,13.1876733 L168.221197,8.9979798 L173.326514,8.9979798 L173.326514,29.2542373 C173.326514,31.1244287 172.955774,32.8063613 172.214284,34.3000856 C171.472794,35.7938099 170.366653,36.965698 168.895828,37.815785 C167.425003,38.665872 165.644238,39.0909091 163.553479,39.0909091 C160.636141,39.0909091 158.277994,38.3987058 156.478969,37.0142784 C154.679944,35.629851 153.585958,33.7475437 153.19698,31.3673001 L158.26583,31.3673001 C158.557564,32.3874045 159.12279,33.1828311 159.961524,33.7536038 C160.800259,34.3243765 161.876011,34.6097586 163.188814,34.6097586 C164.696105,34.6097586 165.911645,34.1665056 166.835468,33.2799863 C167.759292,32.393467 168.221197,31.0515641 168.221197,29.2542373 L168.221197,24.9552474 C167.710663,26.3153866 166.84763,27.4022672 165.632072,28.2159219 C164.416515,29.0295766 162.957867,29.4363979 161.256087,29.4363979 C159.554306,29.4363979 158.022726,29.0235047 156.661302,28.1977059 C155.299877,27.3719071 154.23628,26.1757312 153.470479,24.6091423 C152.704678,23.0425534 152.321783,21.2027498 152.321783,19.0896764 C152.321783,16.976603 152.704678,15.1367995 153.470479,13.5702106 C154.23628,12.0036217 155.299877,10.8074458 156.661302,9.981647 C158.022726,9.1558482 159.554306,8.742955 161.256087,8.742955 Z M162.860615,13.2241055 C161.256079,13.2241055 159.967607,13.7462939 158.995161,14.7906865 C158.022715,15.8350791 157.536499,17.2680614 157.536499,19.0896764 C157.536499,20.9112914 158.022715,22.3382018 158.995161,23.3704503 C159.967607,24.4026988 161.256079,24.9188153 162.860615,24.9188153 C164.416529,24.9188153 165.698923,24.3905548 166.707835,23.3340181 C167.716748,22.2774814 168.221197,20.862715 168.221197,19.0896764 C168.221197,17.2923496 167.716748,15.8654393 166.707835,14.8089026 C165.698923,13.7523659 164.416529,13.2241055 162.860615,13.2241055 Z M184.959342,8.742955 C187.414769,8.742955 189.383942,9.3622948 190.866923,10.600993 C192.349903,11.8396912 193.273713,13.491264 193.63838,15.555761 L188.824796,15.555761 C188.630307,14.584233 188.192713,13.8070223 187.512,13.2241055 C186.831288,12.6411887 185.943944,12.3497346 184.849942,12.3497346 C183.974741,12.3497346 183.294039,12.5561812 182.807816,12.9690806 C182.321593,13.38198 182.078485,13.9406003 182.078485,14.6449581 C182.078485,15.2035867 182.272971,15.6529116 182.66195,15.9929464 C183.050928,16.3329812 183.537144,16.6001474 184.120612,16.794453 C184.704079,16.9887586 185.542801,17.219493 186.636803,17.4866632 C188.168406,17.826698 189.414334,18.1849436 190.374624,18.5614107 C191.334915,18.9378778 192.161482,19.5329298 192.854349,20.3465845 C193.547217,21.1602392 193.893646,22.2592638 193.893646,23.6436911 C193.893646,25.3681533 193.219022,26.7647039 191.869753,27.8333847 C190.520484,28.9020655 188.703252,29.4363979 186.418004,29.4363979 C183.792399,29.4363979 181.689516,28.8474179 180.109291,27.6694402 C178.529066,26.4914625 177.56879,24.8095298 177.228434,22.6235919 L182.151418,22.6235919 C182.272974,23.619408 182.710568,24.4026907 183.464214,24.9734634 C184.217859,25.5442361 185.202446,25.8296182 186.418004,25.8296182 C187.293205,25.8296182 187.961752,25.6170997 188.423664,25.1920562 C188.885576,24.7670127 189.116528,24.2144644 189.116528,23.5343948 C189.116528,22.951478 188.915964,22.4778652 188.51483,22.1135422 C188.113696,21.7492192 187.615325,21.4699091 187.019702,21.2756035 C186.424079,21.0812979 185.579279,20.8505635 184.485277,20.5833933 C182.977986,20.2433585 181.756368,19.8972568 180.820389,19.5450779 C179.88441,19.192899 179.082154,18.6282068 178.413597,17.8509844 C177.74504,17.073762 177.410767,16.0050973 177.410767,14.6449581 C177.410767,12.8962077 178.079314,11.4753693 179.416427,10.3824003 C180.75354,9.2894313 182.60116,8.742955 184.959342,8.742955 Z"/>
    <g fill-rule="nonzero">
      <path fill="#FFF" d="M56.0397525,16.1440313 L46.7879439,32.2729313 L42.3366318,24.297075 L53.5958492,4.97784375 C53.5958492,4.97784375 48.4463345,0.015075 39.6309095,0.015075 C30.8154846,0.015075 25.6659698,4.8006 25.6659698,4.8006 L34.7431585,20.4864188 L37.4488808,16.0553813 L31.9501816,6.30714375 C31.9501816,6.30714375 34.3940295,4.002975 39.6308541,4.002975 C44.8676788,4.002975 47.398892,6.21849375 47.398892,6.21849375 L32.6483843,32.2729313 C32.6483843,32.2729313 24.2693983,16.6757625 20.2545252,12.5992125 C16.2396522,8.5226625 0.00537377279,9.32023125 0.00537377279,9.32023125 L16.8505449,38.8308375 C16.8505449,38.8308375 19.3817027,45.2115 24.7058373,45.2115 C30.0299719,45.2115 32.0374362,41.843925 32.0374362,41.843925 L39.5,28.99395 L44.2568415,36.7039125 L39.6309095,44.413875 L37.0997518,40.8690563 L34.917723,45.3000375 L39.6309095,53.9848688 L46.7879439,41.577975 C46.7879439,41.577975 48.3590245,45.4772813 53.7704137,45.4772813 C59.1818029,45.4772813 61.1020126,40.8690563 61.1020126,40.8690563 L78.9945708,9.49741875 C59.5309874,7.4592 56.0397525,16.1440313 56.0397525,16.1440313 Z M27.9789081,39.2074875 C24.5095007,41.7331688 21.9128604,38.47635 21.9128604,38.47635 L7.77335624,14.0171062 C16.3705617,13.4189437 20.1236157,20.1983625 20.1236157,20.1983625 L29.9427174,37.0805625 L27.9789081,39.2074875 Z M57.5234677,38.47635 C57.5234677,38.47635 54.9268829,41.7331687 51.4574755,39.2074875 L49.4936662,37.0806188 L59.3127679,20.1984188 C59.3127679,20.1984188 63.0658219,13.4189438 71.6629719,14.0171625 L57.5234677,38.47635 Z"/>
      <path fill="#417DE8" d="M56.0397525,16.1440313 L46.7879439,32.2729313 L42.3366318,24.297075 L53.5958492,4.97784375 C53.5958492,4.97784375 48.4463345,0.015075 39.6309095,0.015075 C30.8154846,0.015075 25.6659698,4.8006 25.6659698,4.8006 L34.7431585,20.4864188 L37.4488808,16.0553813 L31.9501816,6.30714375 C31.9501816,6.30714375 34.3940295,4.002975 39.6308541,4.002975 C44.8676788,4.002975 47.398892,6.21849375 47.398892,6.21849375 L32.6483843,32.2729313 C32.6483843,32.2729313 24.2693983,16.6757625 20.2545252,12.5992125 C16.2396522,8.5226625 0.00537377279,9.32023125 0.00537377279,9.32023125 L16.8505449,38.8308375 C16.8505449,38.8308375 19.3817027,45.2115 24.7058373,45.2115 C30.0299719,45.2115 32.0374362,41.843925 32.0374362,41.843925 L39.5,28.99395 L44.2568415,36.7039125 L39.6309095,44.413875 L37.0997518,40.8690563 L34.917723,45.3000375 L39.6309095,53.9848688 L46.7879439,41.577975 C46.7879439,41.577975 48.3590245,45.4772813 53.7704137,45.4772813 C59.1818029,45.4772813 61.1020126,40.8690563 61.1020126,40.8690563 L78.9945708,9.49741875 C59.5309874,7.4592 56.0397525,16.1440313 56.0397525,16.1440313 Z M27.9789081,39.2074875 C24.5095007,41.7331688 21.9128604,38.47635 21.9128604,38.47635 L7.77335624,14.0171062 C16.3705617,13.4189437 20.1236157,20.1983625 20.1236157,20.1983625 L29.9427174,37.0805625 L27.9789081,39.2074875 Z M57.5234677,38.47635 C57.5234677,38.47635 54.9268829,41.7331687 51.4574755,39.2074875 L49.4936662,37.0806188 L59.3127679,20.1984188 C59.3127679,20.1984188 63.0658219,13.4189438 71.6629719,14.0171625 L57.5234677,38.47635 Z"/>
    </g>
    <text fill="#000" font-family="PingFangSC-Medium, PingFang SC" font-size="16" font-weight="400">
      <tspan x="93.416" y="51">components</tspan>
    </text>
  </g>
</svg>
