<svg width="1100" height="750" viewBox="0 0 1100 750" xmlns="http://www.w3.org/2000/svg"><g fill="#3D7AEB"><path d="M780.3 224.223L651.478 448.235l-61.98-110.776L746.27 69.137S674.57.209 551.823.209 357.374 66.675 357.374 66.675l126.391 217.859 37.675-61.543L444.876 87.6s34.028-32.002 106.946-32.002 108.163 30.771 108.163 30.771L454.598 448.235S337.928 231.608 282.025 174.99C226.122 118.37.075 129.448.075 129.448l234.553 409.87s35.244 88.62 109.377 88.62c74.134 0 102.086-46.772 102.086-46.772L550 402.694l66.235 107.083-64.412 107.082-35.244-49.233-30.383 61.541 65.627 120.623 99.655-172.318s21.876 54.157 97.224 54.157 102.086-64.003 102.086-64.003l249.136-435.717C828.912 103.6 780.3 224.223 780.3 224.223zM389.58 544.548c-48.308 35.08-84.464-10.154-84.464-10.154l-196.88-339.712c119.709-8.308 171.966 85.85 171.966 85.85l136.722 234.476-27.344 29.54zm411.38-10.154s-36.155 45.233-84.464 10.154l-27.344-29.54 136.722-234.474s52.258-94.16 171.965-85.851l-196.88 339.71z"/><path d="M780.3 224.223L651.478 448.235l-61.98-110.776L746.27 69.137S674.57.209 551.823.209 357.374 66.675 357.374 66.675l126.391 217.859 37.675-61.543L444.876 87.6s34.028-32.002 106.946-32.002 108.163 30.771 108.163 30.771L454.598 448.235S337.928 231.608 282.025 174.99C226.122 118.37.075 129.448.075 129.448l234.553 409.87s35.244 88.62 109.377 88.62c74.134 0 102.086-46.772 102.086-46.772L550 402.694l66.235 107.083-64.412 107.082-35.244-49.233-30.383 61.541 65.627 120.623 99.655-172.318s21.876 54.157 97.224 54.157 102.086-64.003 102.086-64.003l249.136-435.717C828.912 103.6 780.3 224.223 780.3 224.223zM389.58 544.548c-48.308 35.08-84.464-10.154-84.464-10.154l-196.88-339.712c119.709-8.308 171.966 85.85 171.966 85.85l136.722 234.476-27.344 29.54zm411.38-10.154s-36.155 45.233-84.464 10.154l-27.344-29.54 136.722-234.474s52.258-94.16 171.965-85.851l-196.88 339.71z"/></g></svg>