<?xml version="1.0" encoding="UTF-8"?>
<svg width="1100px" height="750px" viewBox="0 0 1100 750" version="1.1" xmlns="http://www.w3.org/2000/svg" xmlns:xlink="http://www.w3.org/1999/xlink">
    <!-- Generator: Sketch 49.2 (51160) - http://www.bohemiancoding.com/sketch -->
    <title>wings_4 copy</title>
    <desc>Created with Sketch.</desc>
    <defs></defs>
    <g id="Page-1" stroke="none" stroke-width="1" fill="none" fill-rule="evenodd">
        <g id="wings_4-copy" fill="#EBF3FB" fill-rule="nonzero">
            <path d="M780.300351,224.222656 L651.4777,448.235156 L589.497405,337.459375 L746.271318,69.1367188 C746.271318,69.1367188 674.569215,0.209375 551.822791,0.209375 C429.076367,0.209375 357.374264,66.675 357.374264,66.675 L483.765498,284.533594 L521.440112,222.991406 L444.875947,87.5992187 C444.875947,87.5992187 478.904208,55.596875 551.82202,55.596875 C624.739832,55.596875 659.984572,86.3679687 659.984572,86.3679687 L454.597756,448.235156 C454.597756,448.235156 337.928331,231.607813 282.025035,174.989063 C226.121739,118.370313 0.0748246844,129.447656 0.0748246844,129.447656 L234.62784,539.317188 C234.62784,539.317188 269.871809,627.9375 344.00533,627.9375 C418.13885,627.9375 446.090884,581.165625 446.090884,581.165625 L550,402.69375 L616.234502,509.776563 L551.822791,616.859375 L516.578822,567.625781 L486.196143,629.167188 L551.822791,749.789844 L651.4777,577.471875 C651.4777,577.471875 673.353506,631.628906 748.701964,631.628906 C824.050421,631.628906 850.787518,567.625781 850.787518,567.625781 L1099.9244,131.908594 C828.912482,103.6 780.300351,224.222656 780.300351,224.222656 Z M389.579734,544.548437 C341.271529,579.627344 305.115778,534.39375 305.115778,534.39375 L108.236606,194.682031 C227.94453,186.374219 280.202244,280.532812 280.202244,280.532812 L416.923913,515.007813 L389.579734,544.548437 Z M800.959677,534.39375 C800.959677,534.39375 764.804698,579.627344 716.496494,544.548438 L689.152314,515.008594 L825.873983,280.533594 C825.873983,280.533594 878.131697,186.374219 997.83885,194.682813 L800.959677,534.39375 Z" id="Shape"></path>
            <path d="M780.300351,224.222656 L651.4777,448.235156 L589.497405,337.459375 L746.271318,69.1367188 C746.271318,69.1367188 674.569215,0.209375 551.822791,0.209375 C429.076367,0.209375 357.374264,66.675 357.374264,66.675 L483.765498,284.533594 L521.440112,222.991406 L444.875947,87.5992187 C444.875947,87.5992187 478.904208,55.596875 551.82202,55.596875 C624.739832,55.596875 659.984572,86.3679687 659.984572,86.3679687 L454.597756,448.235156 C454.597756,448.235156 337.928331,231.607813 282.025035,174.989063 C226.121739,118.370313 0.0748246844,129.447656 0.0748246844,129.447656 L234.62784,539.317188 C234.62784,539.317188 269.871809,627.9375 344.00533,627.9375 C418.13885,627.9375 446.090884,581.165625 446.090884,581.165625 L550,402.69375 L616.234502,509.776563 L551.822791,616.859375 L516.578822,567.625781 L486.196143,629.167188 L551.822791,749.789844 L651.4777,577.471875 C651.4777,577.471875 673.353506,631.628906 748.701964,631.628906 C824.050421,631.628906 850.787518,567.625781 850.787518,567.625781 L1099.9244,131.908594 C828.912482,103.6 780.300351,224.222656 780.300351,224.222656 Z M389.579734,544.548437 C341.271529,579.627344 305.115778,534.39375 305.115778,534.39375 L108.236606,194.682031 C227.94453,186.374219 280.202244,280.532812 280.202244,280.532812 L416.923913,515.007813 L389.579734,544.548437 Z M800.959677,534.39375 C800.959677,534.39375 764.804698,579.627344 716.496494,544.548438 L689.152314,515.008594 L825.873983,280.533594 C825.873983,280.533594 878.131697,186.374219 997.83885,194.682813 L800.959677,534.39375 Z" id="Shape"></path>
        </g>
    </g>
</svg>