<?xml version="1.0" encoding="UTF-8"?>
<svg width="23px" height="30px" viewBox="0 0 23 30" version="1.1" xmlns="http://www.w3.org/2000/svg" xmlns:xlink="http://www.w3.org/1999/xlink">
    <!-- Generator: Sketch 50.2 (55047) - http://www.bohemiancoding.com/sketch -->
    <title>noun_1561795_cc</title>
    <desc>Created with Sketch.</desc>
    <defs></defs>
    <g id="Templates" stroke="none" stroke-width="1" fill="none" fill-rule="evenodd">
        <g id="Longread" transform="translate(-948.000000, -770.000000)" fill="#FFFFFF" fill-rule="nonzero">
            <g id="noun_1561795_cc" transform="translate(948.000000, 770.000000)">
                <path d="M22.7325185,18.59125 L20.3205,16.23875 C20.2957963,16.2125 20.2642778,16.1925 20.2289259,16.1804167 C20.1411852,16.1516667 20.0445,16.1825 19.9899815,16.2545833 L13.5853333,22.5204167 L13.5857593,0.416666667 C13.5857593,0.36125 13.5631852,0.308333333 13.5235741,0.269166667 C13.483963,0.23 13.4294444,0.208333333 13.3727963,0.208333333 L9.62337037,0.208333333 C9.50581481,0.208333333 9.41040741,0.301666667 9.41040741,0.416666667 L9.41040741,22.5195833 L2.98233333,16.23125 C2.89927778,16.15 2.76425926,16.15 2.6812037,16.23125 L0.267481481,18.5916667 C0.184425926,18.6729167 0.184425926,18.805 0.267481481,18.88625 L11.3462407,29.7304167 C11.3862778,29.7695833 11.4403704,29.79125 11.4970185,29.79125 C11.5536667,29.79125 11.6077593,29.7691667 11.6477963,29.7304167 L22.7333704,18.88625 C22.7734074,18.8470833 22.7955556,18.7941667 22.7955556,18.73875 C22.7955556,18.6833333 22.7729815,18.6304167 22.7325185,18.59125 Z" id="Shape"></path>
            </g>
        </g>
    </g>
</svg>
