<?xml version="1.0" encoding="UTF-8"?>
<svg width="18px" height="14px" viewBox="0 0 18 14" version="1.1" xmlns="http://www.w3.org/2000/svg" xmlns:xlink="http://www.w3.org/1999/xlink">
    <!-- Generator: Sketch 50.2 (55047) - http://www.bohemiancoding.com/sketch -->
    <title>noun_860158_cc</title>
    <desc>Created with Sketch.</desc>
    <defs></defs>
    <g id="Symbols" stroke="none" stroke-width="1" fill="none" fill-rule="evenodd">
        <g id="Header/Share-icons" transform="translate(-252.000000, -18.000000)" fill-rule="nonzero">
            <g id="Group-6" transform="translate(246.000000, 10.000000)">
                <g id="noun_860158_cc" transform="translate(6.000000, 8.000000)">
                    <path d="M15.74,0.102941176 L2.26,0.102941176 C1.1,0.102941176 0.14,1.09117647 0.14,2.28529412 L0.14,11.7147059 C0.14,12.9088235 1.1,13.8970588 2.26,13.8970588 L15.72,13.8970588 C16.88,13.8970588 17.84,12.9088235 17.84,11.7147059 L17.84,2.28529412 C17.86,1.09117647 16.9,0.102941176 15.74,0.102941176 Z M9,7.08235294 L2.46,1.68823529 L15.52,1.68823529 L9,7.08235294 Z M16.3,11.7147059 C16.3,12.0441176 16.04,12.3117647 15.72,12.3117647 L2.26,12.3117647 C1.94,12.3117647 1.68,12.0441176 1.68,11.7147059 L1.68,3.10882353 L8.5,8.75 C8.68,8.89411765 8.84,8.91470588 9,8.91470588 C9.16,8.91470588 9.32,8.87352941 9.5,8.75 L16.32,3.10882353 L16.32,11.7147059 L16.3,11.7147059 Z" id="Shape"></path>
                </g>
            </g>
        </g>
    </g>
</svg>
