<?xml version="1.0" encoding="UTF-8"?>
<svg width="20px" height="20px" viewBox="0 0 20 20" version="1.1" xmlns="http://www.w3.org/2000/svg" xmlns:xlink="http://www.w3.org/1999/xlink">
    <!-- Generator: Sketch 50.2 (55047) - http://www.bohemiancoding.com/sketch -->
    <title>noun_246385_cc</title>
    <desc>Created with Sketch.</desc>
    <defs></defs>
    <g id="Templates" stroke="none" stroke-width="1" fill="none" fill-rule="evenodd">
        <g id="General-page" transform="translate(-1520.000000, -35.000000)" fill="#DD0031" fill-rule="nonzero">
            <g id="Group" transform="translate(1348.000000, 32.000000)">
                <g id="noun_246385_cc" transform="translate(172.000000, 3.000000)">
                    <path d="M20,0.833333333 L20,7.5 C20,7.95833333 19.625,8.33333333 19.1666667,8.33333333 L18.0555556,8.33333333 C17.5972222,8.33333333 17.2222222,7.95833333 17.2222222,7.5 L17.2222222,4.74166667 L9.62694444,12.3372222 C9.30277778,12.6611111 8.7725,12.6613889 8.44833333,12.3372222 L7.66277778,11.5516667 C7.33861111,11.2275 7.33861111,10.6972222 7.66277778,10.3733333 L15.2583333,2.77777778 L12.5,2.77777778 C12.0416667,2.77777778 11.6666667,2.40277778 11.6666667,1.94444444 L11.6666667,0.833333333 C11.6666667,0.375 12.0416667,0 12.5,0 L19.1666667,0 C19.625,0 20,0.375 20,0.833333333 Z M17.7777778,17.7777778 L17.7777778,8.88888889 L15,8.88888889 L15,17.2222222 L2.77777778,17.2222222 L2.77777778,5 L11.1111111,5 L11.1111111,2.22222222 L2.22222222,2.22222222 C0.996944444,2.22222222 0,3.21916667 0,4.44444444 L0,17.7777778 C0,19.0030556 0.996944444,20 2.22222222,20 L15.5555556,20 C16.7808333,20 17.7777778,19.0030556 17.7777778,17.7777778 Z" id="Shape"></path>
                </g>
            </g>
        </g>
    </g>
</svg>