<?xml version="1.0" encoding="UTF-8"?>
<svg width="17px" height="16px" viewBox="0 0 17 16" version="1.1" xmlns="http://www.w3.org/2000/svg" xmlns:xlink="http://www.w3.org/1999/xlink">
    <!-- Generator: Sketch 50.2 (55047) - http://www.bohemiancoding.com/sketch -->
    <title>002-linkedin-letters</title>
    <desc>Created with Sketch.</desc>
    <defs></defs>
    <g id="Symbols" stroke="none" stroke-width="1" fill="none" fill-rule="evenodd">
        <g id="Header/Share-icons" transform="translate(-173.000000, -17.000000)" fill="#FFFFFF" fill-rule="nonzero">
            <g id="Group-5" transform="translate(166.000000, 10.000000)">
                <g id="002-linkedin-letters" transform="translate(7.000000, 7.000000)">
                    <rect id="Rectangle-path" x="0.210041002" y="5.21504762" width="3.64845558" height="10.7783619"></rect>
                    <path d="M15.8321503,6.19958095 C15.0657563,5.37657143 14.0521071,4.96499048 12.7918223,4.96499048 C12.3274784,4.96499048 11.9053827,5.02118095 11.5257289,5.1336381 C11.1461913,5.24601905 10.825631,5.40369524 10.5638929,5.60674286 C10.3023098,5.80979048 10.0939727,5.99828571 9.93930752,6.17222857 C9.79223235,6.33744762 9.64841002,6.52990476 9.50807289,6.74761905 L9.50807289,5.21497143 L5.87049886,5.21497143 L5.88165148,5.73710476 C5.88912528,6.08525714 5.8928041,7.15832381 5.8928041,8.95645714 C5.8928041,10.7547429 5.88544647,13.1003429 5.87065376,15.9934857 L9.50807289,15.9934857 L9.50807289,9.97874286 C9.50807289,9.60902857 9.54838497,9.31542857 9.6296287,9.09771429 C9.7845262,8.72773333 10.0183052,8.41798095 10.3317403,8.16792381 C10.6451367,7.9175619 11.0338132,7.79249524 11.4983121,7.79249524 C12.1319977,7.79249524 12.5983554,8.00819048 12.8969203,8.43961905 C13.195369,8.87100952 13.3446128,9.46742857 13.3446128,10.2288 L13.3446128,15.9931429 L16.9820319,15.9931429 L16.9820319,9.81577143 C16.9817608,8.22765714 16.5987768,7.02232381 15.8321503,6.19958095 Z" id="Shape"></path>
                    <path d="M2.05638041,0.0269714286 C1.44469021,0.0269714286 0.949056948,0.202933333 0.569364465,0.554514286 C0.189710706,0.906171429 0,1.35013333 0,1.88681905 C0,2.416 0.184250569,2.8584381 0.552790433,3.2136381 C0.921214123,3.56887619 1.40774715,3.74659048 2.01211845,3.74659048 L2.03423007,3.74659048 C2.6534328,3.74659048 3.15286105,3.56902857 3.53239863,3.2136381 C3.91193622,2.8584381 4.09800683,2.41615238 4.09068793,1.88681905 C4.0833303,1.35017143 3.89524601,0.906171429 3.52682232,0.554514286 C3.15843736,0.202780952 2.66810934,0.0269714286 2.05638041,0.0269714286 Z" id="Shape"></path>
                </g>
            </g>
        </g>
    </g>
</svg>