<?xml version="1.0" encoding="UTF-8"?>
<svg width="16px" height="16px" viewBox="0 0 16 16" version="1.1" xmlns="http://www.w3.org/2000/svg" xmlns:xlink="http://www.w3.org/1999/xlink">
    <!-- Generator: Sketch 50.2 (55047) - http://www.bohemiancoding.com/sketch -->
    <title>instagram</title>
    <desc>Created with Sketch.</desc>
    <defs></defs>
    <g id="Templates" stroke="none" stroke-width="1" fill="none" fill-rule="evenodd">
        <g id="General-page" transform="translate(-731.000000, -2328.000000)" fill="#FFFFFF" fill-rule="nonzero">
            <g id="Group-3" transform="translate(636.000000, 2328.000000)">
                <g id="instagram" transform="translate(95.000000, 0.000000)">
                    <path d="M11,0 L5,0 C2.239,0 0,2.239 0,5 L0,11 C0,13.761 2.239,16 5,16 L11,16 C13.761,16 16,13.761 16,11 L16,5 C16,2.239 13.761,0 11,0 Z M14.5,11 C14.5,12.93 12.93,14.5 11,14.5 L5,14.5 C3.07,14.5 1.5,12.93 1.5,11 L1.5,5 C1.5,3.07 3.07,1.5 5,1.5 L11,1.5 C12.93,1.5 14.5,3.07 14.5,5 L14.5,11 Z" id="Shape"></path>
                    <path d="M8,4 C5.791,4 4,5.791 4,8 C4,10.209 5.791,12 8,12 C10.209,12 12,10.209 12,8 C12,5.791 10.209,4 8,4 Z M8,10.5 C6.622,10.5 5.5,9.378 5.5,8 C5.5,6.621 6.622,5.5 8,5.5 C9.378,5.5 10.5,6.621 10.5,8 C10.5,9.378 9.378,10.5 8,10.5 Z" id="Shape"></path>
                    <circle id="Oval" cx="12.3" cy="3.7" r="1"></circle>
                </g>
            </g>
        </g>
    </g>
</svg>
