<?xml version="1.0" encoding="iso-8859-1"?>
<!-- Generator: Adobe Illustrator 19.0.0, SVG Export Plug-In . SVG Version: 6.00 Build 0)  -->
<svg xmlns="http://www.w3.org/2000/svg" xmlns:xlink="http://www.w3.org/1999/xlink" version="1.1" id="Capa_1" x="0px" y="0px" viewBox="0 0 512 512" style="enable-background:new 0 0 512 512;" xml:space="preserve" width="512px" height="512px">
<g>
	<g>
		<path d="M507.674,61.158L479.825,33.31c-5.767-5.767-15.119-5.767-20.887,0l-17.406,17.406l-3.482-3.482    c-5.767-5.767-15.119-5.767-20.887,0l-91.167,91.167H14.769C6.613,138.401,0,145.013,0,153.17v315.077    c0,8.157,6.613,14.769,14.769,14.769h320c8.157,0,14.769-6.613,14.769-14.769V268.03l144.211-144.211    c5.768-5.767,5.768-15.119,0-20.887l-3.482-3.482l17.406-17.406C513.443,76.278,513.443,66.926,507.674,61.158z M29.538,167.939    H296.46L194.372,270.027c-2.062,2.062-3.467,4.688-4.04,7.547l-10.202,51.009l-25.086-11.988    c-5.262-2.514-11.508-1.697-15.946,2.083l-42.332,36.064c-0.285,0.243-0.954,0.809-2.091,0.287    c-1.137-0.525-1.137-1.403-1.137-1.778v-12.608c0-11.399-6.181-21.934-16.133-27.495c-9.951-5.561-22.163-5.304-31.872,0.672    l-15.995,9.844V167.939z M320.001,453.477L320.001,453.477H29.538v-95.133l31.476-19.369c0.268-0.164,0.979-0.601,1.983-0.041    C64,339.495,64,340.329,64,340.645v12.608c0,12.428,7.009,23.385,18.292,28.595c4.292,1.982,8.815,2.954,13.295,2.954    c7.295,0,14.474-2.58,20.335-7.573l35.035-29.848l33.565,16.039c0.045,0.022,0.092,0.035,0.136,0.057    c0.161,0.076,0.325,0.149,0.488,0.218c0.09,0.037,0.179,0.073,0.27,0.109c0.141,0.056,0.281,0.114,0.423,0.166    c0.09,0.033,0.179,0.059,0.268,0.091c0.167,0.057,0.334,0.118,0.503,0.169c0.014,0.004,0.029,0.007,0.042,0.012    c0.153,0.045,0.307,0.084,0.461,0.124c0.107,0.029,0.215,0.061,0.323,0.088c0.139,0.034,0.28,0.059,0.419,0.089    c0.094,0.02,0.187,0.04,0.282,0.058c0.142,0.027,0.285,0.052,0.427,0.075c0.146,0.024,0.292,0.044,0.439,0.063    c0.122,0.016,0.244,0.032,0.367,0.045c0.075,0.008,0.151,0.012,0.225,0.019c0.163,0.015,0.327,0.031,0.491,0.04    c0.12,0.007,0.238,0.008,0.358,0.011c0.101,0.003,0.202,0.005,0.303,0.006c0.047,0,0.094,0.007,0.142,0.007    c0.021,0,0.041-0.003,0.062-0.003c0.154-0.001,0.308-0.008,0.463-0.013c0.127-0.005,0.253-0.008,0.379-0.016    c0.141-0.009,0.281-0.021,0.421-0.034c0.092-0.008,0.182-0.019,0.274-0.029c0.162-0.018,0.325-0.034,0.486-0.057    c0.089-0.013,0.175-0.031,0.264-0.044c0.182-0.029,0.364-0.055,0.547-0.092l69.623-13.924c2.859-0.572,5.485-1.978,7.547-4.04    l49.044-49.044V453.477z M253.231,322.562l-43.514,8.704l8.704-43.514l153.489-153.49l34.811,34.811L253.231,322.562z     M427.608,148.188l-34.811-34.811l34.811-34.811l34.811,34.811L427.608,148.188z M469.382,78.564l-6.962-6.962l6.962-6.962    l6.962,6.962L469.382,78.564z" fill="#FFFFFF"/>
	</g>
</g>
<g>
</g>
<g>
</g>
<g>
</g>
<g>
</g>
<g>
</g>
<g>
</g>
<g>
</g>
<g>
</g>
<g>
</g>
<g>
</g>
<g>
</g>
<g>
</g>
<g>
</g>
<g>
</g>
<g>
</g>
</svg>
