<?xml version="1.0" encoding="UTF-8"?>
<svg width="18px" height="14px" viewBox="0 0 18 14" version="1.1" xmlns="http://www.w3.org/2000/svg" xmlns:xlink="http://www.w3.org/1999/xlink">
    <!-- Generator: Sketch 50.2 (55047) - http://www.bohemiancoding.com/sketch -->
    <title>Imported Layers Copy</title>
    <desc>Created with Sketch.</desc>
    <defs></defs>
    <g id="Symbols" stroke="none" stroke-width="1" fill="none" fill-rule="evenodd">
        <g id="Header/Share-icons" transform="translate(-132.000000, -18.000000)">
            <g id="Group-4" transform="translate(126.000000, 10.000000)">
                <path d="M21.8787632,10.2138727 C22.6412034,9.77656906 23.2267451,9.08383281 23.5025213,8.25875954 C22.7891337,8.66353339 21.998498,8.95777995 21.1572646,9.11636258 C20.4836599,8.42954083 19.5242366,8 18.4620733,8 C16.4227196,8 14.7688346,9.58249941 14.7688346,11.5346553 C14.7688346,11.8111583 14.8016651,12.0810076 14.8646224,12.3397671 C11.7955496,12.1922742 9.07448018,10.7853616 7.25296655,8.64689885 C6.93509002,9.16922346 6.75278416,9.7761994 6.75278416,10.4238376 C6.75278416,11.6499881 7.40475935,12.7319726 8.39585434,13.3659335 C7.79061434,13.3474507 7.22090853,13.1884984 6.72342982,12.9234547 C6.72304358,12.938241 6.72304358,12.9530272 6.72304358,12.9681831 C6.72304358,14.680432 7.99570843,16.1091543 9.68512757,16.4337127 C9.3753621,16.5142978 9.04898826,16.5575476 8.71218591,16.5575476 C8.47426131,16.5575476 8.24290282,16.5353682 8.01733794,16.4943363 C8.48739352,17.8982917 9.8512113,18.9200222 11.4672446,18.9488554 C10.2034633,19.8966546 8.61099071,20.4614897 6.88063,20.4614897 C6.58283801,20.4614897 6.28890844,20.4448552 6,20.4123254 C7.63418664,21.4152034 9.57543506,22 11.6607515,22 C18.4531897,22 22.1676716,16.6148443 22.1676716,11.9442347 C22.1676716,11.7908272 22.1641954,11.6385288 22.1572431,11.4869696 C22.8787417,10.9886727 23.5044525,10.3661712 24,9.65753967 C23.3375963,9.9384786 22.6257537,10.128482 21.8787632,10.2138727 Z" id="Imported-Layers-Copy"></path>
            </g>
        </g>
    </g>
</svg>
