<?xml version="1.0" encoding="UTF-8"?>
<svg width="17px" height="17px" viewBox="0 0 17 17" version="1.1" xmlns="http://www.w3.org/2000/svg" xmlns:xlink="http://www.w3.org/1999/xlink">
    <!-- Generator: Sketch 50.2 (55047) - http://www.bohemiancoding.com/sketch -->
    <title>whatsapp</title>
    <desc>Created with Sketch.</desc>
    <defs></defs>
    <g id="Symbols" stroke="none" stroke-width="1" fill="none" fill-rule="evenodd">
        <g id="Header/Share-icons" transform="translate(-213.000000, -17.000000)" fill-rule="nonzero">
            <g id="Group-7" transform="translate(206.000000, 10.000000)">
                <g id="whatsapp" transform="translate(7.000000, 7.000000)">
                    <path d="M12.5791169,9.76843182 C12.546,9.75253571 11.3066558,9.14224675 11.0864286,9.06298701 C10.9965162,9.03069805 10.9002013,8.99918182 10.7977597,8.99918182 C10.6304091,8.99918182 10.4898279,9.08258117 10.3803214,9.24639935 C10.2565195,9.43041883 9.88174675,9.8685 9.76594805,9.99936688 C9.75082468,10.0166429 9.73018182,10.0372857 9.71781818,10.0372857 C9.70672403,10.0372857 9.51492208,9.95830195 9.45685714,9.93307792 C8.12737987,9.35557468 7.11825325,7.96681818 6.97987987,7.73262662 C6.96012013,7.69895779 6.95929221,7.68366883 6.95912662,7.68366883 C6.96398377,7.66584091 7.00869156,7.62102273 7.03176299,7.5978961 C7.09926623,7.53111039 7.17239935,7.44307468 7.24315909,7.35790909 C7.27666234,7.31756169 7.31022078,7.27715909 7.34317208,7.23907468 C7.44583442,7.11963312 7.49153571,7.02690584 7.54452273,6.91949675 L7.57228571,6.86369481 C7.70166234,6.6066526 7.59116234,6.38973701 7.5554513,6.31969481 C7.52614286,6.26107792 7.00284091,4.99811039 6.94720455,4.86542208 C6.81341234,4.54523701 6.63662338,4.39615584 6.3909513,4.39615584 C6.36815584,4.39615584 6.3909513,4.39615584 6.2953539,4.40018506 C6.17894805,4.4050974 5.54503571,4.48855195 5.26475649,4.66523052 C4.96753247,4.85261688 4.46470779,5.44993506 4.46470779,6.5004026 C4.46470779,7.44583442 5.06467532,8.3385 5.32226948,8.67800325 C5.32867208,8.68655844 5.34042857,8.70394481 5.35748377,8.72889286 C6.34398052,10.1695877 7.57377597,11.237276 8.82046104,11.7352987 C10.0206721,12.2147208 10.589013,12.2701364 10.9121234,12.2701364 C10.9121786,12.2701364 10.9121786,12.2701364 10.9121786,12.2701364 C11.0479578,12.2701364 11.1566364,12.2594838 11.2525097,12.2500455 L11.3133344,12.24425 C11.7279578,12.2074903 12.6391136,11.7353539 12.8463701,11.1593961 C13.0096364,10.70575 13.0526883,10.2101006 12.9440649,10.0302208 C12.8696623,9.90790909 12.7414448,9.84636688 12.5791169,9.76843182 Z" id="XMLID_469_"></path>
                    <path d="M8.6509026,0 C4.04677273,0 0.301032468,3.71759091 0.301032468,8.28711364 C0.301032468,9.76506494 0.696558442,11.211776 1.44582792,12.4779448 L0.0117012987,16.7083506 C-0.015012987,16.787224 0.00485714286,16.8744318 0.0631980519,16.9338214 C0.105311688,16.9768182 0.162438312,17 0.220779221,17 C0.243133117,17 0.265652597,16.9966331 0.28762013,16.9896234 L4.69878896,15.5878961 C5.90589935,16.2328474 7.27020455,16.573289 8.65095779,16.573289 C13.2546461,16.5733442 17,12.8561396 17,8.28711364 C17,3.71759091 13.2546461,0 8.6509026,0 Z M8.6509026,14.8470714 C7.35167208,14.8470714 6.09328571,14.4719123 5.01157792,13.7621071 C4.97520455,13.7382078 4.93298052,13.7259545 4.89048052,13.7259545 C4.86801623,13.7259545 4.84549675,13.7293766 4.82358442,13.7363312 L2.61386039,14.4387403 L3.32719805,12.3342175 C3.35026948,12.2661071 3.33873377,12.190987 3.29623377,12.1329221 C2.47250649,11.0073896 2.03707468,9.67758117 2.03707468,8.28711364 C2.03707468,4.66948052 5.00401623,1.72627273 8.6508474,1.72627273 C12.297237,1.72627273 15.2638474,4.66948052 15.2638474,8.28711364 C15.2639026,11.9043052 12.2973474,14.8470714 8.6509026,14.8470714 Z" id="XMLID_470_"></path>
                </g>
            </g>
        </g>
    </g>
</svg>
